<svg xmlns="http://www.w3.org/2000/svg" width="200" height="36" fill="none"><path fill="#000" d="M0 35.325V0h15.089c2.71 0 4.977.374 6.802 1.121 1.838.748 3.216 1.794 4.135 3.14.93 1.345 1.396 2.903 1.396 4.674 0 1.345-.289 2.547-.866 3.605a7.5 7.5 0 0 1-2.385 2.604c-1.013.69-2.185 1.173-3.516 1.45v.344a8.94 8.94 0 0 1 4.046 1.156 8.07 8.07 0 0 1 3.003 2.932c.754 1.242 1.131 2.714 1.131 4.416 0 1.897-.495 3.593-1.484 5.088-.99 1.483-2.42 2.656-4.293 3.519-1.873.85-4.147 1.276-6.82 1.276H0Zm8.746-6.882h5.407c1.896 0 3.292-.35 4.187-1.052.907-.702 1.36-1.68 1.36-2.933 0-.908-.217-1.69-.653-2.345-.436-.667-1.054-1.179-1.855-1.535-.801-.369-1.761-.552-2.88-.552H8.746v8.417Zm0-13.92h4.841c.954 0 1.802-.155 2.544-.465.742-.31 1.32-.76 1.732-1.346.424-.586.636-1.293.636-2.121 0-1.185-.43-2.116-1.29-2.795-.86-.678-2.02-1.017-3.48-1.017H8.745v7.744ZM31.238 0h9.77l7.651 14.782h.318L56.627 0H66.4L53.165 23.527v11.798h-8.693V23.527L31.238 0ZM71.165 6.934V0h30.584v6.934H90.777v28.391h-8.622V6.934h-10.99ZM106.021 35.325V0h25.23v6.934h-16.484v7.244h15.195v6.951h-15.195v7.262h16.484v6.934h-25.23ZM136.729 35.325V0h25.23v6.934h-16.484v7.244h15.195v6.951h-15.195v7.262h16.484v6.934h-25.23ZM176.289 0l6.608 11.16h.282l.283-.473L176.289 0Z"/><path fill="#000" fill-rule="evenodd" d="M182.897 11.16 176.289 0h-9.859l10.937 17.663-11.22 17.662h9.965l6.785-11.28h.282l6.785 11.28H200l-16.538-24.638-.283.473h-.282Z" clip-rule="evenodd"/><path fill="#000" d="M191.176 0H200v8.831h-8.824V0Z"/></svg>